<svg width="27" height="27" viewBox="0 0 27 27" fill="none" xmlns="http://www.w3.org/2000/svg">
<circle cx="13.5" cy="13.5" r="13.5" transform="matrix(1 0 0 -1 0 27)" fill="white"/>
<g clip-path="url(#clip0_131_399)">
<path d="M13.5 12.1362V15.0408H17.5364C17.3591 15.9749 16.8272 16.7658 16.0295 17.2976L18.4636 19.1863C19.8818 17.8772 20.7 15.9545 20.7 13.6704C20.7 13.1386 20.6522 12.6272 20.5636 12.1363L13.5 12.1362Z" fill="#46318F"/>
<path d="M9.29663 14.9277L8.74766 15.348L6.80444 16.8616C8.03853 19.3093 10.5679 21.0002 13.4997 21.0002C15.5246 21.0002 17.2223 20.332 18.4633 19.1866L16.0292 17.298C15.361 17.748 14.5087 18.0207 13.4997 18.0207C11.5497 18.0207 9.89293 16.7048 9.2997 14.9321L9.29663 14.9277Z" fill="#46318F"/>
<path d="M6.80449 10.1387C6.29315 11.1477 6 12.2864 6 13.5C6 14.7136 6.29315 15.8523 6.80449 16.8613C6.80449 16.8681 9.29998 14.9249 9.29998 14.9249C9.14999 14.4749 9.06132 13.9977 9.06132 13.4999C9.06132 13.0021 9.14999 12.5249 9.29998 12.0749L6.80449 10.1387Z" fill="#46318F"/>
<path d="M13.4998 8.98636C14.6044 8.98636 15.5862 9.36817 16.3703 10.1045L18.518 7.95684C17.2157 6.74323 15.5249 6 13.4998 6C10.568 6 8.03853 7.68409 6.80444 10.1386L9.29986 12.075C9.89301 10.3023 11.5498 8.98636 13.4998 8.98636Z" fill="#46318F"/>
</g>
<defs>
<clipPath id="clip0_131_399">
<rect width="15" height="15" fill="white" transform="translate(6 6)"/>
</clipPath>
</defs>
</svg>
