<svg width="75" height="74" viewBox="0 0 75 74" fill="none" xmlns="http://www.w3.org/2000/svg">
<g>
<path d="M42.9947 42.8398C45.8077 42.105 48.4656 40.8074 50.8005 39.0027C51.9765 38.096 51.8387 36.2827 50.5291 35.5695C49.4177 34.9636 48.0564 35.0066 47.0096 35.7156C42.0383 39.0585 35.4172 39.5914 29.7911 36.5363C28.628 35.9046 27.5726 35.157 26.6291 34.3062C30.0366 34.7316 33.6983 34.9593 37.5022 34.9593C56.0044 34.9593 71 29.5238 71 22.8163C71 18.7987 65.6238 15.2409 57.3355 13.0366C54.4234 6.51394 48.2675 1.33619 39.6432 0.18033C33.9999 -0.580218 28.2575 1.08697 23.9152 4.76511C21.0289 7.21003 18.9439 10.046 17.6042 13.0495C9.35035 15.2581 4 18.8116 4 22.8163C4 26.821 9.84145 30.6925 18.7328 32.8796C20.6628 36.1581 23.4801 38.9683 27.0685 40.9191C28.6452 41.7785 30.2822 42.4187 31.945 42.8527C21.3994 45.3578 12.6372 54.7851 8.38108 66H15.1099C19.5772 56.332 28.0335 48.6406 37.7348 48.6406C47.4361 48.6406 55.9053 56.3148 60.3639 66H66.6017C62.3455 54.7637 53.5618 45.332 42.9947 42.8398ZM11.8704 22.8163C11.8704 21.394 13.3523 20.0749 15.9112 18.9534C15.5537 21.6046 15.6958 24.2816 16.3032 26.8382C13.5074 25.6909 11.8704 24.303 11.8704 22.812V22.8163ZM27.8267 8.58074C30.8896 6.13581 34.8141 4.97995 38.7127 5.37526C43.9036 5.90378 47.9788 8.30574 50.6583 11.6487C46.6176 11.0214 42.1676 10.6733 37.4935 10.6733C32.8195 10.6733 28.7271 10.9913 24.8198 11.5714C25.6685 10.51 26.6679 9.50457 27.8224 8.58074H27.8267ZM21.856 17.1487C26.1811 16.2163 31.609 15.662 37.4978 15.662C43.3867 15.662 49.2066 16.255 53.6049 17.2519C54.2683 19.4562 54.4708 21.798 54.1692 24.1226C54.0271 25.2355 54.6043 26.3226 55.5951 26.8597L55.7244 26.9327C57.0512 27.6546 58.6925 26.8468 58.9337 25.3558C59.2826 23.2116 59.3042 21.0503 59.0112 18.9362C61.6132 20.0534 63.1209 21.3897 63.1209 22.8249C63.1209 26.7823 51.6491 29.9835 37.4935 29.9835C31.8976 29.9835 26.7239 29.4851 22.5151 28.6343C20.96 25.0765 20.6628 21.0073 21.856 17.1573V17.1487Z" fill="white"/>
</g>
<defs>
 <filter id="filter0_d_374_1656" x="0" y="0" width="75" height="74" filterUnits="userSpaceOnUse" color-interpolation-filters="sRGB">
<feFlood flood-opacity="0" result="BackgroundImageFix"/>
<feColorMatrix in="SourceAlpha" type="matrix" values="0 0 0 0 0 0 0 0 0 0 0 0 0 0 0 0 0 0 127 0" result="hardAlpha"/>
<feOffset dy="4"/>
<feGaussianBlur stdDeviation="2"/>
<feComposite in2="hardAlpha" operator="out"/>
<feColorMatrix type="matrix" values="0 0 0 0 0 0 0 0 0 0 0 0 0 0 0 0 0 0 0.25 0"/>
<feBlend mode="normal" in2="BackgroundImageFix" result="effect1_dropShadow_374_1656"/>
<feBlend mode="normal" in="SourceGraphic" in2="effect1_dropShadow_374_1656" result="shape"/>
</filter>
</defs>
</svg>
