<svg width="110" height="75" viewBox="0 0 110 75" fill="none" xmlns="http://www.w3.org/2000/svg">
<g clip-path="url(#clip0_378_116)" filter="url(#filter0_d_378_116)">
<path d="M106 35.0933C106 28.9148 97.8135 23.4433 85.1968 20.0479C80.7721 10.0177 71.3979 2.05807 58.2674 0.276894C49.6721 -0.892002 40.9332 1.674 34.321 7.32923C29.924 11.092 26.7532 15.4503 24.7093 20.0702C12.1478 23.4711 4 28.9315 4 35.0933C4 41.255 12.8936 47.2108 26.4328 50.5728C29.3716 55.6158 33.6637 59.9351 39.1269 62.9353C51.0421 69.47 65.1779 67.8613 75.2536 59.9908C77.0434 58.5937 76.8335 55.805 74.8393 54.7085H74.8338C73.1435 53.7789 71.072 53.8457 69.4755 54.9311C61.9077 60.0743 51.8265 60.8925 43.2588 56.1946C41.4856 55.2261 39.8781 54.0739 38.4419 52.7659C43.6289 53.4171 49.2026 53.7734 54.9972 53.7734C83.1695 53.7734 106 45.413 106 35.0933ZM15.9815 35.0933C15.9815 32.9058 18.2408 30.8741 22.1352 29.1542C21.5938 33.2342 21.8093 37.3476 22.7318 41.2829C18.4728 39.5184 15.9815 37.3866 15.9815 35.0933ZM40.2759 13.2015C44.9381 9.43881 50.915 7.6632 56.8533 8.26991C64.7581 9.08258 70.9615 12.7785 75.0437 17.9161C68.89 16.9531 62.1176 16.4188 54.9972 16.4188C47.8768 16.4188 41.6513 16.9086 35.702 17.7992C36.9946 16.1683 38.5137 14.6209 40.2759 13.2015ZM32.1888 44.027C29.819 38.5555 29.3716 32.2935 31.1834 26.3767C37.768 24.9406 46.0318 24.089 54.9972 24.089C63.9626 24.089 72.8231 25.0018 79.5236 26.5325C80.5345 29.9223 80.8439 33.5236 80.3854 37.0971C80.1699 38.8115 81.0483 40.4813 82.5563 41.3051L82.7552 41.4165C84.7769 42.5241 87.2738 41.2829 87.6439 38.9896C88.1742 35.6944 88.2073 32.3659 87.7599 29.1152C91.7206 30.8352 94.0185 32.8891 94.0185 35.0933C94.0185 41.1771 76.5517 46.1032 54.9972 46.1032C46.4793 46.1032 38.6021 45.335 32.1888 44.027Z" fill="url(#paint0_linear_378_116)"/>
</g>
<defs>
<filter id="filter0_d_378_116" x="0" y="0" width="110" height="75" filterUnits="userSpaceOnUse" color-interpolation-filters="sRGB">
<feFlood flood-opacity="0" result="BackgroundImageFix"/>
<feColorMatrix in="SourceAlpha" type="matrix" values="0 0 0 0 0 0 0 0 0 0 0 0 0 0 0 0 0 0 127 0" result="hardAlpha"/>
<feOffset dy="4"/>
<feGaussianBlur stdDeviation="2"/>
<feComposite in2="hardAlpha" operator="out"/>
<feColorMatrix type="matrix" values="0 0 0 0 0 0 0 0 0 0 0 0 0 0 0 0 0 0 0.25 0"/>
<feBlend mode="normal" in2="BackgroundImageFix" result="effect1_dropShadow_378_116"/>
<feBlend mode="normal" in="SourceGraphic" in2="effect1_dropShadow_378_116" result="shape"/>
</filter>
<linearGradient id="paint0_linear_378_116" x1="55.0028" y1="66.9986" x2="55.0028" y2="-0.0014137" gradientUnits="userSpaceOnUse">
<stop stop-color="#3B278F"/>
<stop offset="0.24" stop-color="#6D3BBE"/>
<stop offset="0.55" stop-color="#8535DB"/>
<stop offset="0.76" stop-color="#B736C0"/>
<stop offset="1" stop-color="#E149AC"/>
</linearGradient>
<clipPath id="clip0_378_116">
<rect width="102" height="67" fill="white" transform="translate(4)"/>
</clipPath>
</defs>
</svg>
