<svg width="44" height="44" viewBox="0 0 44 44" fill="none" xmlns="http://www.w3.org/2000/svg">
<g clip-path="url(#clip0_132_565)" >
<path d="M16.7499 9C18.8169 9 20.4999 10.683 20.4999 12.75C20.4999 14.817 18.8169 16.5 16.7499 16.5C14.6829 16.5 12.9999 14.817 12.9999 12.75C12.9999 10.683 14.6829 9 16.7499 9ZM16.7499 15C17.9904 15 18.9999 13.9905 18.9999 12.75C18.9999 11.5095 17.9904 10.5 16.7499 10.5C15.5094 10.5 14.4999 11.5095 14.4999 12.75C14.4999 13.9905 15.5094 15 16.7499 15ZM3.9999 3.816C3.9999 1.7115 5.7129 0 7.8384 0C15.5784 0.2205 21.7809 3.4035 27.1719 9.9675C29.6019 9.996 32.0274 10.5855 34.2009 11.676C36.7839 12.9735 38.8359 14.9295 39.6924 16.908C40.2309 18.153 40.0884 19.65 39.3219 20.8155C38.6184 21.885 37.5219 22.4985 36.3129 22.4985H32.5014C30.5124 22.4985 28.9989 23.004 28.0029 24C26.9784 25.0245 26.5014 26.406 26.5014 28.3485V32.16C26.5014 33.396 25.8399 34.5675 24.7314 35.2965C24.0219 35.763 23.2209 36.0015 22.4289 36.0015C21.9084 36.0015 21.3939 35.8995 20.9109 35.6895C18.9324 34.8345 16.9749 32.7825 15.6789 30.198C14.5884 28.026 13.9989 25.6005 13.9704 23.169C7.4064 17.7795 4.2234 11.574 4.0029 3.8145L3.9999 3.816ZM38.0664 19.9935C38.5584 19.2435 38.6529 18.291 38.3139 17.5035C37.5939 15.8385 35.8044 14.16 33.5274 13.017C31.9284 12.2145 30.1779 11.712 28.3959 11.5365C28.5534 11.748 28.7109 11.9625 28.8669 12.1815C31.2714 15.534 33.1584 19.635 33.7599 21H36.3114C37.0074 21 37.6464 20.6325 38.0664 19.9935ZM17.0154 29.526C18.1599 31.8045 19.8369 33.5925 21.5019 34.3125C22.2429 34.635 23.1624 34.5285 23.9049 34.0425C24.5994 33.585 24.9984 32.8995 24.9984 32.16V29.6205C23.6139 29.0475 19.5249 27.264 16.1799 24.864C15.9624 24.708 15.7479 24.5505 15.5349 24.393C15.7104 26.175 16.2129 27.927 17.0154 29.526ZM17.0544 23.6475C19.8639 25.662 23.3214 27.2655 25.0044 27.993C25.0659 25.8345 25.7019 24.1785 26.9394 22.9395C28.1574 21.7215 29.8974 21.072 32.1144 21.0045C31.3404 19.3125 29.6589 15.8625 27.6459 13.0545C22.1604 5.4015 15.8529 1.7295 7.8159 1.5C6.5379 1.5 5.4999 2.5395 5.4999 3.795C5.7294 11.853 9.4014 18.1605 17.0559 23.6475H17.0544ZM37.4019 28.098C38.3079 29.0025 39.5934 32.151 39.9534 33.726C40.0974 34.353 39.9099 34.9995 39.4554 35.454C39.1014 35.808 38.6319 35.9985 38.1444 35.9985C38.0049 35.9985 37.8654 35.9835 37.7259 35.9505C36.1509 35.5905 33.0039 34.305 32.0979 33.399C31.3884 32.691 30.9999 31.749 30.9999 30.747C30.9999 29.745 31.3899 28.803 32.0979 28.095C33.5124 26.679 35.9859 26.679 37.4004 28.095L37.4019 28.098ZM33.1599 32.34C33.7464 32.9265 36.4944 34.131 38.0619 34.4895C38.2284 34.527 38.3439 34.446 38.3949 34.3935C38.4474 34.341 38.5299 34.2285 38.4909 34.0605C38.1324 32.493 36.9279 29.745 36.3414 29.1585C35.9169 28.734 35.3514 28.5 34.7499 28.5C34.1484 28.5 33.5844 28.734 33.1584 29.1585C32.7324 29.583 32.4999 30.1485 32.4999 30.75C32.4999 31.3515 32.7339 31.9155 33.1584 32.3415L33.1599 32.34Z" fill="#CCB0F0"/>
</g>
<defs>
<filter id="filter0_d_132_565" x="0" y="0" width="44" height="44" filterUnits="userSpaceOnUse" color-interpolation-filters="sRGB">
<feFlood flood-opacity="0" result="BackgroundImageFix"/>
<feColorMatrix in="SourceAlpha" type="matrix" values="0 0 0 0 0 0 0 0 0 0 0 0 0 0 0 0 0 0 127 0" result="hardAlpha"/>
<feOffset dy="4"/>
<feGaussianBlur stdDeviation="2"/>
<feComposite in2="hardAlpha" operator="out"/>
<feColorMatrix type="matrix" values="0 0 0 0 0 0 0 0 0 0 0 0 0 0 0 0 0 0 0.25 0"/>
<feBlend mode="normal" in2="BackgroundImageFix" result="effect1_dropShadow_132_565"/>
<feBlend mode="normal" in="SourceGraphic" in2="effect1_dropShadow_132_565" result="shape"/>
</filter>
<clipPath id="clip0_132_565">
<rect width="36" height="36" fill="white" transform="matrix(-1 0 0 1 40 0)"/>
</clipPath>
</defs>
</svg>
