<svg width="78" height="14" viewBox="0 0 78 14" fill="none" xmlns="http://www.w3.org/2000/svg">
<path d="M2.75824 5.97098C2.86028 7.62813 2.92967 9.76691 3.12151 11.9424C3.17457 12.5465 2.6562 13.22 1.8113 13.3057C1.03579 13.3914 0.2766 12.8935 0.207212 12.22C0.0317011 10.322 -0.160136 4.31383 0.219457 1.33015C0.321498 0.636265 0.892929 0.068916 1.83987 0.154631C2.21946 0.187284 2.83987 0.411774 3.08069 0.897491C4.546 3.90158 5.79091 6.26486 6.96234 8.10976C6.96234 5.95057 6.87662 3.39954 6.66846 1.41178C6.58275 0.754633 7.23989 0.256672 7.94602 0.150549C8.56643 0.081161 9.48072 0.358713 9.56643 0.979124C9.94602 3.98322 9.77459 10.1587 9.58276 12.0404C9.49704 12.7832 8.995 13.2322 8.28887 13.3016C7.59908 13.371 7.11336 13.0445 6.83989 12.7302C5.47662 10.9179 3.73376 7.79548 2.75008 5.9669L2.75824 5.97098Z" fill="white"/>
<path d="M18.3419 1.02041C19.3093 2.73062 21.4644 8.63268 22.3093 11.4776C22.5011 12.2531 22.0522 13.049 21.3256 13.2368C20.2726 13.5143 19.6358 12.9102 19.4277 12.2531C18.8073 10.2327 17.2032 4.97144 16.8399 4.24491C16.6685 4.60818 16.1828 6.07349 15.6848 7.71431H16.9256C17.5624 7.71431 17.9093 8.4735 17.9093 9.17962C17.9093 9.78371 17.6848 10.6123 16.9093 10.6123H14.7705C14.5787 11.249 14.3909 11.8368 14.2685 12.2531C14.0807 12.9102 13.4562 13.5143 12.4562 13.2531C11.5256 13.0286 11.195 12.2694 11.4031 11.4776C12.248 8.6286 14.3868 2.72654 15.3909 1.02041C15.5134 0.77959 16.0807 0.15918 16.8236 0.15918C17.6195 0.15918 18.2032 0.77959 18.3419 1.02041Z" fill="white"/>
<path d="M26.9051 7.92248C26.9215 9.49392 26.9909 10.9756 27.0766 11.996C27.1296 12.7388 26.4562 13.2572 25.7133 13.3062C24.8684 13.3592 24.1582 12.9796 24.0929 12.2694C23.9051 10.3551 23.7296 4.10614 24.1092 1.10205C24.1949 0.465312 25.0398 0.0653109 25.75 0.151025C26.4562 0.23674 27.1664 0.722456 27.0766 1.5143C26.9909 2.37552 26.9215 3.63675 26.9051 5.01635H28.7011C29.3745 5.01635 29.8398 5.68982 29.8398 6.44901C29.8398 7.06942 29.5296 7.91432 28.7011 7.91432H26.9051V7.92248ZM33.4807 12.2694C33.3582 13.098 32.5297 13.4082 31.8766 13.3062C31.1011 13.1837 30.4439 12.7347 30.497 11.996C30.7215 9.39188 30.7378 3.88573 30.497 1.51838C30.395 0.742864 31.2235 0.224495 31.8276 0.155107C32.6399 0.0530659 33.3623 0.448986 33.4684 1.10613C33.848 4.11022 33.7623 10.4082 33.4848 12.2735L33.4807 12.2694Z" fill="white"/>
<path d="M40.7134 13.4776C37.0562 13.4776 35.1746 10.3184 35.1746 6.74696C35.1746 3.17552 36.8644 0 40.7134 0C44.5624 0 46.2889 3.41634 46.2889 6.76737C46.2889 10.4082 44.444 13.4817 40.7134 13.4817V13.4776ZM40.6807 2.9143C39.0236 2.93062 38.146 4.17553 38.146 6.77962C38.146 9.19595 39.0072 10.5429 40.7011 10.5429C42.395 10.5429 43.3052 9.19595 43.3052 6.77962C43.3052 4.24083 42.444 2.9143 40.6807 2.9143Z" fill="white"/>
<path d="M50.689 9.66544C50.689 9.97564 50.8604 10.2001 51.1543 10.2532C51.5666 10.3389 52.0849 10.3756 52.64 10.3756C53.64 10.3756 54.4686 10.2532 55.1094 10.0124C55.7829 9.75524 56.7299 10.045 56.9217 11.0328C57.0931 11.7593 56.7992 12.3961 56.2645 12.6899C55.2645 13.2246 53.7094 13.3104 52.587 13.3104C51.3788 13.3104 50.138 13.1226 49.24 12.7593C48.738 12.5512 48.0482 12.0695 47.8931 11.241C47.6155 9.8083 47.738 2.35113 47.9094 1.07765C48.0114 0.40418 48.84 0.0409129 49.6196 0.179689C50.5339 0.318465 50.8808 0.97561 50.8441 1.40418C50.7584 2.38786 50.587 7.54706 50.689 9.66952V9.66544Z" fill="white"/>
<path d="M60.7012 9.66544C60.7012 9.97564 60.8726 10.2001 61.1665 10.2532C61.5788 10.3389 62.0971 10.3756 62.6522 10.3756C63.6522 10.3756 64.4808 10.2532 65.1216 10.0124C65.7951 9.75524 66.7421 10.045 66.9339 11.0328C67.1053 11.7593 66.8114 12.3961 66.2768 12.6899C65.2767 13.2246 63.7216 13.3104 62.5992 13.3104C61.391 13.3104 60.1502 13.1226 59.2522 12.7593C58.7502 12.5512 58.0604 12.0695 57.9053 11.241C57.6277 9.8083 57.7502 2.35113 57.9216 1.07765C58.0237 0.40418 58.8522 0.0409129 59.6318 0.179689C60.5461 0.318465 60.8931 0.97561 60.8563 1.40418C60.7706 2.38786 60.5992 7.54706 60.7012 9.66952V9.66544Z" fill="white"/>
<path d="M72.4197 13.4776C68.7625 13.4776 66.8809 10.3184 66.8809 6.74696C66.8809 3.17552 68.5707 0 72.4197 0C76.2686 0 77.9952 3.41634 77.9952 6.76737C77.9952 10.4082 76.1503 13.4817 72.4197 13.4817V13.4776ZM72.387 2.9143C70.7299 2.93062 69.8523 4.17553 69.8523 6.77962C69.8523 9.19595 70.7135 10.5429 72.4074 10.5429C74.1013 10.5429 75.0115 9.19595 75.0115 6.77962C75.0115 4.24083 74.1503 2.9143 72.387 2.9143Z" fill="white"/>
</svg>
