<svg width="87" height="22" viewBox="0 0 87 22" fill="none" xmlns="http://www.w3.org/2000/svg">
<g>
<path d="M7.19892 6.48953C7.30096 8.14668 7.37035 10.2855 7.56218 12.461C7.61524 13.0651 7.09687 13.7385 6.25197 13.8243C5.47646 13.91 4.71727 13.412 4.64789 12.7385C4.47237 10.8406 4.28054 4.83238 4.66013 1.8487C4.76217 1.15482 5.3336 0.587471 6.28054 0.673185C6.66014 0.705839 7.28055 0.930329 7.52137 1.41605C8.98668 4.42014 10.2316 6.78341 11.403 8.62832C11.403 6.46913 11.3173 3.9181 11.1091 1.93033C11.0234 1.27319 11.6806 0.775227 12.3867 0.669104C13.0071 0.599716 13.9214 0.877268 14.0071 1.49768C14.3867 4.50177 14.2153 10.6773 14.0234 12.5589C13.9377 13.3018 13.4357 13.7508 12.7295 13.8202C12.0398 13.8896 11.554 13.563 11.2806 13.2487C9.91729 11.4365 8.17443 8.31403 7.19075 6.48545L7.19892 6.48953Z" fill="url(#paint0_linear_374_1680)"/>
<path d="M22.7826 1.53896C23.75 3.24917 25.9051 9.15124 26.75 11.9961C26.9418 12.7717 26.4928 13.5676 25.7663 13.7553C24.7132 14.0329 24.0765 13.4288 23.8683 12.7717C23.2479 10.7512 21.6438 5.49 21.2806 4.76346C21.1091 5.12673 20.6234 6.59204 20.1255 8.23286H21.3663C22.003 8.23286 22.35 8.99205 22.35 9.69818C22.35 10.3023 22.1255 11.1308 21.35 11.1308H19.2112C19.0193 11.7676 18.8316 12.3553 18.7091 12.7717C18.5214 13.4288 17.8969 14.0329 16.8969 13.7717C15.9663 13.5472 15.6357 12.788 15.8438 11.9961C16.6887 9.14715 18.8275 3.24509 19.8316 1.53896C19.954 1.29814 20.5214 0.677734 21.2643 0.677734C22.0602 0.677734 22.6438 1.29814 22.7826 1.53896Z" fill="url(#paint1_linear_374_1680)"/>
<path d="M31.3458 8.44104C31.3621 10.0125 31.4315 11.4941 31.5172 12.5145C31.5703 13.2574 30.8968 13.7758 30.154 13.8247C29.3091 13.8778 28.5989 13.4982 28.5336 12.788C28.3458 10.8737 28.1703 4.6247 28.5499 1.6206C28.6356 0.983867 29.4805 0.583866 30.1907 0.66958C30.8968 0.755295 31.607 1.24101 31.5172 2.03285C31.4315 2.89408 31.3621 4.15531 31.3458 5.5349H33.1417C33.8152 5.5349 34.2805 6.20838 34.2805 6.96756C34.2805 7.58797 33.9703 8.43287 33.1417 8.43287H31.3458V8.44104ZM37.9213 12.788C37.7989 13.6166 36.9703 13.9268 36.3173 13.8247C35.5417 13.7023 34.8846 13.2533 34.9377 12.5145C35.1622 9.91043 35.1785 4.40429 34.9377 2.03693C34.8356 1.26142 35.6642 0.74305 36.2683 0.673662C37.0805 0.571621 37.803 0.967541 37.9091 1.62469C38.2887 4.62878 38.203 10.9268 37.9254 12.7921L37.9213 12.788Z" fill="url(#paint2_linear_374_1680)"/>
<path d="M45.154 13.9962C41.4969 13.9962 39.6152 10.837 39.6152 7.26552C39.6152 3.69408 41.305 0.518555 45.154 0.518555C49.003 0.518555 50.7296 3.93489 50.7296 7.28593C50.7296 10.9268 48.8847 14.0002 45.154 14.0002V13.9962ZM45.1214 3.43285C43.4642 3.44918 42.5867 4.69408 42.5867 7.29817C42.5867 9.71451 43.4479 11.0615 45.1418 11.0615C46.8357 11.0615 47.7459 9.71451 47.7459 7.29817C47.7459 4.75939 46.8846 3.43285 45.1214 3.43285Z" fill="url(#paint3_linear_374_1680)"/>
<path d="M55.1297 10.184C55.1297 10.4942 55.3011 10.7187 55.595 10.7718C56.0072 10.8575 56.5256 10.8942 57.0807 10.8942C58.0807 10.8942 58.9093 10.7718 59.5501 10.5309C60.2236 10.2738 61.1705 10.5636 61.3624 11.5513C61.5338 12.2779 61.2399 12.9146 60.7052 13.2085C59.7052 13.7432 58.1501 13.8289 57.0276 13.8289C55.8195 13.8289 54.5787 13.6411 53.6807 13.2779C53.1787 13.0697 52.4889 12.5881 52.3338 11.7595C52.0562 10.3269 52.1787 2.86968 52.3501 1.59621C52.4521 0.922734 53.2807 0.559468 54.0603 0.698244C54.9746 0.83702 55.3215 1.49417 55.2848 1.92274C55.1991 2.90642 55.0276 8.06562 55.1297 10.1881V10.184Z" fill="url(#paint4_linear_374_1680)"/>
<path d="M65.1419 10.184C65.1419 10.4942 65.3133 10.7187 65.6072 10.7718C66.0194 10.8575 66.5378 10.8942 67.0929 10.8942C68.0929 10.8942 68.9215 10.7718 69.5623 10.5309C70.2358 10.2738 71.1827 10.5636 71.3746 11.5513C71.546 12.2779 71.2521 12.9146 70.7174 13.2085C69.7174 13.7432 68.1623 13.8289 67.0399 13.8289C65.8317 13.8289 64.5909 13.6411 63.6929 13.2779C63.1909 13.0697 62.5011 12.5881 62.346 11.7595C62.0684 10.3269 62.1909 2.86968 62.3623 1.59621C62.4643 0.922734 63.2929 0.559468 64.0725 0.698244C64.9868 0.83702 65.3337 1.49417 65.297 1.92274C65.2113 2.90642 65.0399 8.06562 65.1419 10.1881V10.184Z" fill="url(#paint5_linear_374_1680)"/>
<path d="M76.8603 13.9962C73.2032 13.9962 71.3215 10.837 71.3215 7.26552C71.3215 3.69408 73.0113 0.518555 76.8603 0.518555C80.7093 0.518555 82.4359 3.93489 82.4359 7.28593C82.4359 10.9268 80.591 14.0002 76.8603 14.0002V13.9962ZM76.8277 3.43285C75.1705 3.44918 74.293 4.69408 74.293 7.29817C74.293 9.71451 75.1542 11.0615 76.8481 11.0615C78.542 11.0615 79.4522 9.71451 79.4522 7.29817C79.4522 4.75939 78.591 3.43285 76.8277 3.43285Z" fill="url(#paint6_linear_374_1680)"/>
</g>
<defs>

<linearGradient id="paint0_linear_374_1680" x1="4.43972" y1="7.24872" x2="14.2398" y2="7.24872" gradientUnits="userSpaceOnUse">
<stop offset="0.6" stop-color="#3B278F"/>
<stop offset="0.93" stop-color="#7C35DB"/>
</linearGradient>
<linearGradient id="paint1_linear_374_1680" x1="15.7867" y1="7.25327" x2="26.7949" y2="7.25327" gradientUnits="userSpaceOnUse">
<stop stop-color="#3B278F"/>
<stop offset="0.48" stop-color="#6D3BBE"/>
</linearGradient>
<linearGradient id="paint2_linear_374_1680" x1="28.3213" y1="7.2492" x2="38.1581" y2="7.2492" gradientUnits="userSpaceOnUse">
<stop offset="0.24" stop-color="#6D3BBE"/>
<stop offset="0.91" stop-color="#8535DB"/>
</linearGradient>
<linearGradient id="paint3_linear_374_1680" x1="39.6152" y1="7.25735" x2="50.7296" y2="7.25735" gradientUnits="userSpaceOnUse">
<stop offset="0.55" stop-color="#8535DB"/>
<stop offset="1" stop-color="#B736C0"/>
</linearGradient>
<linearGradient id="paint4_linear_374_1680" x1="52.1705" y1="7.24521" x2="61.4113" y2="7.24521" gradientUnits="userSpaceOnUse">
<stop offset="0.76" stop-color="#B736C0"/>
<stop offset="1" stop-color="#E149AC"/>
</linearGradient>
<linearGradient id="paint5_linear_374_1680" x1="62.1827" y1="0.518651" x2="71.4195" y2="0.518651" gradientUnits="userSpaceOnUse">
<stop offset="0.76" stop-color="#B736C0"/>
<stop offset="1" stop-color="#E149AC"/>
</linearGradient>
<linearGradient id="paint6_linear_374_1680" x1="71.3215" y1="7.25735" x2="82.4359" y2="7.25735" gradientUnits="userSpaceOnUse">
<stop offset="0.52" stop-color="#B736C0"/>
<stop offset="1" stop-color="#E149AC"/>
</linearGradient>
</defs>
</svg>
